<svg xmlns="http://www.w3.org/2000/svg" viewBox="0 0 1093.82 1093.97"><defs><style>.cls-1{fill:#fff;}</style></defs><g id="Layer_2" data-name="Layer 2"><g id="Layer_1-2" data-name="Layer 1"><path class="cls-1" d="M565.86,48.94l.74-18.85L549.2,0l2.44.1,11.75,20,4.38,7.59H568l5-7.23L586,1.45l2.45.1L568.76,30.17,568,49Z"/><path class="cls-1" d="M593.64,26.09c1.94-14.93,12-23.5,24.47-21.87s20,12.47,18.08,27.4-12,23.49-24.48,21.86S591.7,41,593.64,26.09ZM634,31.33c1.84-14.21-4.08-23.4-16.15-25s-20.13,5.81-22,20,4.07,23.4,16.14,25S632.13,45.54,634,31.33Z"/><path class="cls-1" d="M650.75,39.56l6.89-28.34,2.1.51-6.89,28.34c-2.84,11.68,1.78,18.58,12.48,21.19s18-1.41,20.82-13.1L693,19.83l2.1.51-6.89,28.34C685.2,61.2,675.8,66,664.82,63.36S647.7,52.08,650.75,39.56Z"/><path class="cls-1" d="M719.19,78.87l18.14-44.69,2,.81-8.7,21.41,14.55,5.91,22.56-15.78,2.34.94L746.75,63.8l5.39,28.45-2.33-1-5.25-27.07-14.68-6-8.69,21.41Z"/><path class="cls-1" d="M761.54,96.69l22.33-42.77L786,55.05l5.83,47.8.7,6,.19.09,20.66-39.57,1.92,1L793,113.12,790.84,112,785.1,64.8l-.79-6.59-.19-.1L763.46,97.69Z"/><path class="cls-1" d="M818.3,99.88c8.34-12.53,21.14-15.77,31.63-8.79s12.43,20,4.09,32.57-21.14,15.76-31.63,8.78S810,112.4,818.3,99.88Zm33.86,22.54c7.94-11.92,6.7-22.79-3.43-29.53s-20.63-3.7-28.57,8.22-6.7,22.79,3.43,29.53S844.22,134.34,852.16,122.42Z"/><path class="cls-1" d="M859.15,158l21.17-45.5,1.85,1.61-16.1,34.26L862,157.07l.16.14,8.38-4.93,33.17-19.45,2,1.75-14.57,35.58-3.7,9,.16.14,8-5.26,31.65-20.77,1.85,1.61-42.05,27.37-2.29-2,11.63-28.89,6.05-14.77-.27-.24-13.77,8.07-27,15.59Z"/><path class="cls-1" d="M930.85,229.18l14.56-12,10.83-33L957.8,186l-7.08,22.08L948,216.45l.14.17,8.7-1.11,22.89-2.92,1.55,1.89-34.48,4.36-14.55,12Z"/><path class="cls-1" d="M966.42,234.7c12.42-8.5,25.5-6.71,32.61,3.69s4,23.23-8.4,31.73-25.5,6.71-32.61-3.69S954,243.19,966.42,234.7Zm23,33.58c11.83-8.09,14.74-18.63,7.88-28.67s-17.75-11.16-29.58-3.07-14.73,18.62-7.87,28.67S977.55,276.36,989.37,268.28Z"/><path class="cls-1" d="M994.41,286.27l25.72-13.75,1,1.91-25.72,13.74c-10.6,5.67-12.67,13.71-7.48,23.43s13,12.46,23.63,6.79l25.72-13.74,1,1.9L1012.6,320.3c-11.36,6.07-21.22,2.28-26.55-7.68S983.05,292.34,994.41,286.27Z"/><path class="cls-1" d="M1015.09,374.68l41.59-28.08.76,2.33L1026,370l-8,5.32.07.2,9.72.09,38.46.43.82,2.53-30.83,23-7.81,5.8.07.2,9.57-.39,37.83-1.49.76,2.33-50.16,1.79-.93-2.87,24.86-18.77,12.79-9.55-.11-.34-16-.18-31.15-.53Z"/><path class="cls-1" d="M1032,430l51.23,10.82.55,2.82-43.47,29.2-.44-2.27,14.39-9.76-4.84-25-17-3.59Zm19.55,6.26,4.52,23.32,20.1-13.58,4.94-3.3,0-.22-5.81-1.22Z"/><path class="cls-1" d="M1041.59,483.41l48-4.39.22,2.44-37,30.78-4.64,3.82,0,.22,44.46-4.06.2,2.15-48,4.38-.23-2.43,36.56-30.38,5.11-4.23,0-.21-44.46,4.06Z"/><path class="cls-1" d="M1045.3,547.23l46.22.74.29-17.92,2,0-.61,38-2,0,.29-17.93-46.22-.74Z"/><path class="cls-1" d="M1042.35,601.34l48,5.3-.24,2.15-48-5.31Z"/><path class="cls-1" d="M1038,632.18l45.54,8,3.08-17.66,2,.34-6.53,37.45-2-.35,3.09-17.66-45.54-7.94Z"/><path class="cls-1" d="M106.19,779.62,89.5,788.4,72.15,818.52,71,816.35l11.44-20.17,4.39-7.6-.1-.19L78,787.7l-23-1.81-1.14-2.17,34.64,2.77,16.7-8.78Z"/><path class="cls-1" d="M72.52,767c-13.9,5.78-26.34,1.36-31.18-10.27s.8-23.57,14.69-29.35S82.36,726,87.2,737.63,86.41,761.21,72.52,767ZM56.89,729.43c-13.23,5.51-18.23,15.23-13.56,26.46s15.1,14.54,28.33,9,18.23-15.22,13.55-26.46S70.11,723.92,56.89,729.43Z"/><path class="cls-1" d="M55.62,710.79l-28,8.2L27,716.92l28-8.21c11.54-3.38,15.2-10.83,12.11-21.4s-10.21-14.87-21.75-11.48l-28,8.2L16.79,682l28-8.2c12.37-3.62,21.25,2.1,24.43,13S68,707.16,55.62,710.79Z"/><path class="cls-1" d="M55.45,631.86,7.67,638.49l-.29-2.14,22.89-3.18-2.16-15.54L3.16,606l-.35-2.49,25.81,12,21.94-18.89.35,2.5L30.09,617.21l2.17,15.69,22.9-3.18Z"/><path class="cls-1" d="M49.7,586.27,1.5,588.32l-.1-2.45,38.48-29,4.82-3.59v-.21L.09,555,0,552.85l48.2-2,.1,2.44-38,28.57-5.31,4V586l44.6-1.9Z"/><path class="cls-1" d="M24.09,535.52c-15-1-24.22-10.42-23.42-23s11.14-20.79,26.16-19.83,24.22,10.42,23.41,23S39.1,536.48,24.09,535.52Zm2.59-40.59C12.39,494,3.6,500.52,2.83,512.66s7.1,19.72,21.4,20.63,23.08-5.59,23.86-17.73S41,495.84,26.68,494.93Z"/><path class="cls-1" d="M54,471.07l-50,4.41.47-2.4,37.72-3.19,9.54-.8,0-.21-8.46-4.79-33.43-19,.5-2.62,38.11-5.17L58.17,436l0-.21-8.56-4.3-33.81-17,.46-2.4L61.05,434.8l-.58,3-30.83,4.38L13.82,444.3l-.07.35,13.88,7.89,27,15.56Z"/><path class="cls-1" d="M79.79,373.4l-17.67-6.6-34,7.12.86-2.29,22.66-4.91,8.59-1.79.07-.2-5.31-7L41,339.39l.85-2.3,21,27.68,17.67,6.6Z"/><path class="cls-1" d="M66.79,339.84c-13.57-6.51-18.56-18.73-13.11-30.09s18.11-15.1,31.68-8.59,18.56,18.73,13.11,30.09S80.35,346.35,66.79,339.84Zm17.6-36.67c-12.92-6.2-23.5-3.45-28.76,7.52s-.79,20.94,12.12,27.14,23.5,3.45,28.77-7.52S97.31,309.37,84.39,303.17Z"/><path class="cls-1" d="M97.45,289.81l-24.76-15.4,1.14-1.83L98.59,288c10.21,6.35,18.21,4.12,24-5.23s4.28-17.52-5.93-23.86l-24.76-15.4,1.14-1.84L117.83,257c10.94,6.81,12.59,17.24,6.62,26.84S108.39,296.61,97.45,289.81Z"/><path class="cls-1" d="M163.68,227.7l-45.11-22,1.63-1.82,34,16.7,8.59,4.24.14-.16-4.78-8.47L139.27,182.7l1.78-2,35.33,15.2,8.92,3.86.14-.16-5.12-8.09-20.2-32,1.63-1.82,26.63,42.54-2,2.25-28.69-12.14L143,184l-.24.27,7.82,13.91,15.11,27.24Z"/><path class="cls-1" d="M203.16,185.4l-16.25-49.78,2.17-1.89,47,23.05-1.74,1.51-15.65-7.58-19.18,16.67,5.37,16.51Zm-4.36-20.06,17.94-15.58-21.81-10.62-5.33-2.62-.16.14,1.84,5.65Z"/><path class="cls-1" d="M244.59,150.39,216.77,111l2-1.41,45.17,16.68,5.63,2.11.18-.13L244,91.75l1.76-1.25,27.82,39.42-2,1.41L227,114.86l-6.21-2.31-.18.12,25.75,36.47Z"/><path class="cls-1" d="M298,115.26l-22.47-40.4-15.67,8.71-1-1.76,33.22-18.47,1,1.76-15.67,8.71,22.47,40.4Z"/><path class="cls-1" d="M346.34,90.76,327,46.58l2-.86,19.38,44.17Z"/><path class="cls-1" d="M375.22,79.08l-15.89-43.4L342.5,41.84,341.81,40,377.5,26.88l.7,1.9-16.84,6.16,15.89,43.4Z"/><path class="cls-1" d="M968.82,812.35l15.95,10.07,34.76,0-1.31,2.07-23.18.18h-8.77l-.12.18,3.77,7.92,9.93,20.83-1.3,2.07-14.93-31.39-16-10.07Z"/><path class="cls-1" d="M974.72,847.84C986.67,857,989.07,870,981.42,880s-20.81,11.09-32.77,1.95S934.3,859.8,942,849.79,962.76,838.7,974.72,847.84ZM950,880.15c11.38,8.7,22.3,8.17,29.69-1.49s5-20.35-6.34-29-22.3-8.17-29.69,1.5S938.63,871.45,950,880.15Z"/><path class="cls-1" d="M934.49,890.56l21.1,20.14-1.49,1.56L933,892.12c-8.7-8.3-17-7.75-24.59.22s-7.77,16.27.93,24.58l21.09,20.13-1.49,1.56-21.09-20.13c-9.33-8.9-8.81-19.45-1-27.63S925.17,881.66,934.49,890.56Z"/><path class="cls-1" d="M866.22,930.17l29.64,38.07-1.71,1.32L880,951.33,867.57,961,870,988.41,868,990l-2.47-28.38L838.16,952l2-1.54,26.07,9,12.5-9.73-14.2-18.24Z"/><path class="cls-1" d="M829.62,958l25.87,40.72-2.07,1.31-44.31-18.85-5.52-2.38-.18.12,23.94,37.67-1.82,1.16L799.66,977l2.06-1.32,43.74,18.62,6.09,2.61.19-.11L827.8,959.11Z"/><path class="cls-1" d="M798.52,1005.49c6.68,13.49,3.09,26.19-8.2,31.78s-23.57.75-30.25-12.73-3.09-26.2,8.2-31.79S791.84,992,798.52,1005.49Zm-36.45,18c6.35,12.84,16.39,17.2,27.29,11.8s13.52-16,7.16-28.86-16.39-17.19-27.29-11.79S755.71,1010.71,762.07,1023.54Z"/><path class="cls-1" d="M727.68,1011.8l28.82,41.08-2.32.8-21.62-31.07-5.46-7.87-.2.07.08,9.72.26,38.46-2.52.87-23.53-30.42-5.94-7.7-.2.07.56,9.56,2.16,37.8-2.31.79-2.69-50.1,2.86-1,19.21,24.52,9.77,12.62.34-.12-.11-16v-31.14Z"/><path class="cls-1" d="M630.22,1038.33l3.12,18.6,23.18,25.9-2.41.41-15.59-17.17-5.84-6.54-.21,0-3.39,8.09-8.91,21.28-2.42.41,13.46-32-3.12-18.6Z"/><path class="cls-1" d="M607.66,1066.37c1.15,15-6.94,25.44-19.5,26.4s-22.14-8.13-23.28-23.14,6.94-25.44,19.5-26.4S606.52,1051.37,607.66,1066.37Zm-40.56,3.09c1.09,14.29,8.76,22.08,20.9,21.15s18.53-9.78,17.44-24.07-8.76-22.08-20.89-21.15S566,1055.18,567.1,1069.46Z"/><path class="cls-1" d="M549,1064.83l-1,29.14-2.16-.07,1-29.14c.39-12-5.54-17.83-16.55-18.19s-17.31,5-17.7,17.07l-1,29.14-2.16-.07,1-29.14c.42-12.88,8.63-19.53,19.93-19.16S549.43,1052,549,1064.83Z"/><path class="cls-1" d="M462.1,1038.53l3.52,50.06-2.39-.51-2.52-37.78-.63-9.55-.21,0-4.94,8.37-19.6,33.09-2.6-.55-4.5-38.2-1.11-9.65-.21,0-4.45,8.48-17.63,33.51-2.39-.51L426,1030.87l3,.63,3.83,30.91,1.86,15.86.36.07,8.13-13.73,16-26.71Z"/><path class="cls-1" d="M405.7,1025.48l-35,39-2.72-.94-3.55-52.24,2.18.75,1.26,17.34,24,8.28,11.6-12.91Zm-15.19,13.81-22.46-7.75,1.71,24.2.4,5.93.2.07,4-4.43Z"/><path class="cls-1" d="M354.67,1007.11l-20.22,43.79-2.23-1-8.14-47.46-1-5.93-.2-.09-18.71,40.53-2-.91,20.22-43.79,2.22,1,8,46.85,1.11,6.54.2.09,18.71-40.53Z"/><path class="cls-1" d="M297.56,978.42l-23.75,39.65,15.38,9.22-1,1.73-32.61-19.54,1-1.73L272,1017l23.75-39.65Z"/><path class="cls-1" d="M252.17,948.81l-28.56,38.87-1.74-1.28,28.56-38.87Z"/><path class="cls-1" d="M227.63,929.64,198,965.1l13.75,11.5-1.29,1.55-29.16-24.39,1.29-1.54,13.75,11.5L226,928.26Z"/></g></g></svg>